#!OML:ASF H:\LiuWeirdWalks\Patient Classification 1\Patient 1\Session 1\male.ASF
:FULLY-SPECIFIED
:DEGREES
1147
root 0.732046 18.1344 35.5302 1.9098 4.23282 10.108
lowerback 8.61569 -1.62008 -1.47313
upperback 1.09722 -1.84345 11.2178
thorax -3.27038 -0.836273 13.2872
lowerneck -24.7369 4.4197 14.2116
upperneck 26.7715 5.99296 -16.6854
head 14.3547 1.8344 -8.23486
rclavicle 9.54166e-015 2.8625e-014
rhumerus -25.1934 -8.23522 -51.4093
rradius 41.6302
rwrist -18.8294
rhand -17.6291 -3.65236
rfingers 7.12502
rthumb 8.62824 -33.456
lclavicle 9.54166e-015 2.8625e-014
lhumerus -44.2947 -11.9876 100.58
lradius 48.7466
lwrist 0.106194
lhand 1.95839 -5.52102
lfingers 7.12502
lthumb 27.4648 22.4965
rfemur -14.9245 -9.66252 7.8756
rtibia 34.6047
rfoot -11.9999 -16.705
rtoes -4.34066
lfemur -7.68592 2.84312 -27.0199
ltibia 26.771
lfoot -9.12168 13.9648
ltoes -5.88896
1148
root 0.718509 18.1326 35.563 1.82807 4.26484 10.108
lowerback 8.66657 -1.75289 -1.76331
upperback 1.13805 -2.04844 11.329
thorax -3.19087 -0.941993 13.6256
lowerneck -24.6669 4.59579 14.3974
upperneck 26.7481 6.24231 -16.8606
head 14.4007 1.94417 -8.29888
rclavicle -2.54444e-014 -1.90833e-014
rhumerus -24.351 -7.58218 -51.5187
rradius 42.2026
rwrist -19.0723
rhand -17.7387 -3.52099
rfingers 7.12502
rthumb 8.52247 -33.329
lclavicle -2.54444e-014 -1.90833e-014
lhumerus -44.408 -11.4663 100.785
lradius 48.363
lwrist 0.160281
lhand 1.90669 -5.51892
lfingers 7.12502
lthumb 27.4153 22.5064
rfemur -14.6981 -9.62738 7.89765
rtibia 34.5997
rfoot -12.1247 -16.7454
rtoes -4.41226
lfemur -7.24608 2.61804 -26.9866
ltibia 25.6634
lfoot -9.35773 14.3526
ltoes -5.8166
1149
root 0.706319 18.1307 35.5951 1.77932 4.29334 10.103
lowerback 8.68794 -1.87208 -2.02095
upperback 1.14386 -2.23094 11.4329
thorax -3.13633 -1.03482 13.9334
lowerneck -24.5356 4.73667 14.5596
upperneck 26.7197 6.45187 -17.0192
head 14.4217 2.03829 -8.35665
rclavicle -3.26007e-014 -6.36111e-015
rhumerus -23.5971 -6.99288 -51.584
rradius 42.7584
rwrist -19.2778
rhand -17.8278 -3.48741
rfingers 7.12502
rthumb 8.43657 -33.2989
lclavicle -3.26007e-014 -6.36111e-015
lhumerus -44.5586 -10.9425 100.981
lradius 47.9938
lwrist 0.157541
lhand 1.84841 -5.5307
lfingers 7.12502
lthumb 27.3596 22.5035
rfemur -14.515 -9.59064 7.92827
rtibia 34.6002
rfoot -12.2448 -16.7946
rtoes -4.48233
lfemur -6.80871 2.32113 -26.96
ltibia 24.4556
lfoot -9.5454 14.7293
ltoes -5.68824
1150
root 0.695777 18.1299 35.6259 1.82839 4.31605 10.042
lowerback 8.6199 -1.99902 -2.20366
upperback 1.1134 -2.41706 11.5543
thorax -3.0694 -1.12996 14.2119
lowerneck -24.367 4.88233 14.7481
upperneck 26.6658 6.66854 -17.2022
head 14.4285 2.13663 -8.42618
rclavicle 7.95139e-016 -5.08889e-014
rhumerus -22.8534 -6.40308 -51.6399
rradius 43.2704
rwrist -19.4728
rhand -17.9238 -3.43587
rfingers 7.12502
rthumb 8.34384 -33.2511
lclavicle 7.95139e-016 -5.08889e-014
lhumerus -44.7069 -10.3514 101.138
lradius 47.643
lwrist 0.0970487
lhand 1.8155 -5.55845
lfingers 7.12502
lthumb 27.3281 22.4807
rfemur -14.4497 -9.56386 8.03673
rtibia 34.5956
rfoot -12.3435 -16.8522
rtoes -4.54423
lfemur -6.47855 1.96654 -26.8857
ltibia 23.203
lfoot -9.6766 15.0751
ltoes -5.67128
1151
root 0.687247 18.1305 35.6549 1.99547 4.32714 9.89889
lowerback 8.43158 -2.04118 -2.11284
upperback 0.988269 -2.45984 11.6396
thorax -3.08633 -1.14697 14.2556
lowerneck -24.1503 4.88142 14.7946
upperneck 26.6464 6.69688 -17.2661
head 14.3848 2.15408 -8.45243
rclavicle -5.00937e-014 1.24042e-013
rhumerus -22.4542 -6.05135 -51.5654
rradius 43.8277
rwrist -19.6472
rhand -18.0207 -3.43805
rfingers 7.12502
rthumb 8.25039 -33.257
lclavicle -5.00937e-014 1.24042e-013
lhumerus -44.977 -10.0568 101.383
lradius 47.3027
lwrist 0.0354428
lhand 1.78345 -5.58468
lfingers 7.12502
lthumb 27.2975 22.4593
rfemur -14.5317 -9.54783 8.25467
rtibia 34.5877
rfoot -12.421 -16.9142
rtoes -4.59837
lfemur -6.28831 1.57452 -26.7352
ltibia 21.9249
lfoot -9.74607 15.3801
ltoes -5.75249
1152
root 0.680271 18.1323 35.6828 2.25942 4.33407 9.70981
lowerback 8.13182 -2.00532 -1.79022
upperback 0.821397 -2.37806 11.6806
thorax -3.12961 -1.10024 14.081
lowerneck -24.0305 4.77827 14.7185
upperneck 26.6869 6.57908 -17.2162
head 14.3434 2.10529 -8.43878
rclavicle 6.36111e-015 -1.01778e-013
rhumerus -22.2754 -5.96346 -51.3987
rradius 44.3834
rwrist -19.8023
rhand -18.1124 -3.44604
rfingers 7.12502
rthumb 8.16181 -33.2684
lclavicle 6.36111e-015 -1.01778e-013
lhumerus -45.2621 -10.0509 101.676
lradius 46.9616
lwrist -0.0516241
lhand 1.82037 -5.60073
lfingers 7.12502
lthumb 27.3328 22.4377
rfemur -14.7303 -9.54522 8.53782
rtibia 34.5753
rfoot -12.4805 -16.9793
rtoes -4.64551
lfemur -6.23019 1.15974 -26.5424
ltibia 20.6601
lfoot -9.73184 15.6347
ltoes -6.09336
1153
root 0.67426 18.134 35.7099 2.55493 4.33911 9.5176
lowerback 7.79727 -1.91563 -1.36949
upperback 0.616359 -2.21549 11.6863
thorax -3.2183 -1.01075 13.795
lowerneck -23.8985 4.59811 14.568
upperneck 26.7425 6.35712 -17.0969
head 14.2758 2.01175 -8.39989
rclavicle -2.22639e-014 6.67916e-014
rhumerus -22.2911 -6.02055 -51.1661
rradius 44.9458
rwrist -19.9601
rhand -18.1972 -3.46302
rfingers 7.12502
rthumb 8.07999 -33.2886
lclavicle -2.22639e-014 6.67916e-014
lhumerus -45.6042 -10.2413 102.015
lradius 46.6277
lwrist -0.129316
lhand 1.87205 -5.61251
lfingers 7.12502
lthumb 27.3822 22.4181
rfemur -14.9718 -9.53749 8.828
rtibia 34.5689
rfoot -12.5357 -17.0535
rtoes -4.67717
lfemur -6.22071 0.751744 -26.3463
ltibia 19.4096
lfoot -9.58342 15.8004
ltoes -6.8515
1154
root 0.669719 18.1364 35.7357 2.91292 4.3356 9.29507
lowerback 7.43547 -1.93399 -1.0975
upperback 0.441091 -2.21659 11.7709
thorax -3.20841 -1.00901 13.7111
lowerneck -23.7597 4.59233 14.6205
upperneck 26.7245 6.35761 -17.1385
head 14.242 2.01746 -8.42393
rclavicle 1.19271e-014 -9.54166e-015
rhumerus -21.9771 -5.80223 -51.0804
rradius 45.4278
rwrist -20.1235
rhand -18.2762 -3.507
rfingers 7.12502
rthumb 8.00373 -33.3355
lclavicle 1.19271e-014 -9.54166e-015
lhumerus -45.81 -10.0386 102.196
lradius 46.3095
lwrist -0.287754
lhand 1.97584 -5.63193
lfingers 7.12502
lthumb 27.4815 22.3829
rfemur -15.2967 -9.53036 9.15993
rtibia 34.5688
rfoot -12.5809 -17.1284
rtoes -4.70848
lfemur -6.30159 0.352801 -26.1173
ltibia 18.2138
lfoot -9.20492 15.8621
ltoes -7.84258
1155
root 0.664611 18.1361 35.7625 3.11059 4.34211 9.20655
lowerback 7.22554 -1.96121 -1.0397
upperback 0.323968 -2.24738 11.8322
thorax -3.20712 -1.02134 13.7437
lowerneck -23.6417 4.61181 14.691
upperneck 26.7133 6.38993 -17.1903
head 14.2242 2.03726 -8.45123
rclavicle -7.95139e-015 6.99722e-014
rhumerus -21.6209 -5.55684 -51.0129
rradius 45.8634
rwrist -20.2834
rhand -18.3436 -3.52318
rfingers 7.12502
rthumb 7.93867 -33.3541
lclavicle -7.95139e-015 6.99722e-014
lhumerus -45.9725 -9.81715 102.347
lradius 45.999
lwrist -0.440145
lhand 2.11499 -5.6329
lfingers 7.12502
lthumb 27.6146 22.3607
rfemur -15.4281 -9.50316 9.31141
rtibia 34.577
rfoot -12.6522 -17.2018
rtoes -4.72845
lfemur -6.20108 -0.0254633 -26.025
ltibia 17.122
lfoot -8.58595 15.8032
ltoes -8.93585
1156
root 0.660071 18.1359 35.7883 3.28934 4.34846 9.11726
lowerback 7.03547 -1.98471 -0.983624
upperback 0.216 -2.27325 11.8917
thorax -3.2084 -1.03136 13.7756
lowerneck -23.5513 4.62624 14.7406
upperneck 26.7306 6.41559 -17.22
head 14.2213 2.05395 -8.46916
rclavicle 2.38542e-015 -1.90833e-014
rhumerus -21.2765 -5.32824 -50.9479
rradius 46.2675
rwrist -20.4735
rhand -18.4047 -3.50764
rfingers 7.12502
rthumb 7.87972 -33.3408
lclavicle 2.38542e-015 -1.90833e-014
lhumerus -46.1107 -9.64232 102.488
lradius 45.7008
lwrist -0.569403
lhand 2.27512 -5.6149
lfingers 7.12502
lthumb 27.7677 22.3541
rfemur -15.5422 -9.48044 9.45885
rtibia 34.5848
rfoot -12.7147 -17.2671
rtoes -4.75357
lfemur -6.09769 -0.378856 -25.9276
ltibia 16.2015
lfoot -7.79107 15.6444
ltoes -9.68978
1157
root 0.656113 18.1365 35.813 3.46285 4.35438 9.02684
lowerback 6.8372 -1.94806 -0.824917
upperback 0.0893108 -2.20918 11.9094
thorax -3.25256 -0.994661 13.6854
lowerneck -23.4903 4.55217 14.683
upperneck 26.7978 6.32288 -17.1542
head 14.2102 2.01815 -8.45051
rclavicle 7.23576e-014 -1.59028e-013
rhumerus -21.1178 -5.26703 -50.8169
rradius 46.658
rwrist -20.6421
rhand -18.4456 -3.50186
rfingers 7.12502
rthumb 7.84023 -33.3365
lclavicle 7.23576e-014 -1.59028e-013
lhumerus -46.2865 -9.703 102.677
lradius 45.413
lwrist -0.659835
lhand 2.45886 -5.57171
lfingers 7.12502
lthumb 27.9433 22.3689
rfemur -15.6514 -9.46623 9.60471
rtibia 34.5853
rfoot -12.7637 -17.3225
rtoes -4.78068
lfemur -6.00359 -0.705706 -25.8252
ltibia 15.4813
lfoot -6.91783 15.4459
ltoes -9.55946
